<svg width="64" height="64" viewBox="0 0 64 64" fill="none" xmlns="http://www.w3.org/2000/svg">
<path d="M43.0236 20.9763L43.7307 20.2692L43.7307 20.2692L43.0236 20.9763ZM24.6667 44.0473V45.0473C24.9319 45.0473 25.1862 44.9419 25.3738 44.7544L24.6667 44.0473ZM20 44.0473H19C19 44.5996 19.4477 45.0473 20 45.0473V44.0473ZM20 39.2859L19.2929 38.5788C19.1054 38.7663 19 39.0207 19 39.2859H20ZM39.0167 21.6834C39.9279 20.7722 41.4053 20.7722 42.3165 21.6834L43.7307 20.2692C42.0384 18.5769 39.2947 18.5769 37.6025 20.2692L39.0167 21.6834ZM42.3165 21.6834C43.2277 22.5946 43.2277 24.072 42.3165 24.9832L43.7307 26.3975C45.423 24.7052 45.423 21.9615 43.7307 20.2692L42.3165 21.6834ZM42.3165 24.9832L23.9596 43.3402L25.3738 44.7544L43.7307 26.3975L42.3165 24.9832ZM24.6667 43.0473H20V45.0473H24.6667V43.0473ZM37.6025 20.2692L19.2929 38.5788L20.7071 39.993L39.0167 21.6834L37.6025 20.2692ZM19 39.2859V44.0473H21V39.2859H19ZM35.6025 23.6834L40.3165 28.3975L41.7307 26.9832L37.0167 22.2692L35.6025 23.6834Z" fill="#16D629"/>
<path d="M43.0236 20.9763L43.7307 20.2692L43.7307 20.2692L43.0236 20.9763ZM24.6667 44.0473V45.0473C24.9319 45.0473 25.1862 44.9419 25.3738 44.7544L24.6667 44.0473ZM20 44.0473H19C19 44.5996 19.4477 45.0473 20 45.0473V44.0473ZM20 39.2859L19.2929 38.5788C19.1054 38.7663 19 39.0207 19 39.2859H20ZM39.0167 21.6834C39.9279 20.7722 41.4053 20.7722 42.3165 21.6834L43.7307 20.2692C42.0384 18.5769 39.2947 18.5769 37.6025 20.2692L39.0167 21.6834ZM42.3165 21.6834C43.2277 22.5946 43.2277 24.072 42.3165 24.9832L43.7307 26.3975C45.423 24.7052 45.423 21.9615 43.7307 20.2692L42.3165 21.6834ZM42.3165 24.9832L23.9596 43.3402L25.3738 44.7544L43.7307 26.3975L42.3165 24.9832ZM24.6667 43.0473H20V45.0473H24.6667V43.0473ZM37.6025 20.2692L19.2929 38.5788L20.7071 39.993L39.0167 21.6834L37.6025 20.2692ZM19 39.2859V44.0473H21V39.2859H19ZM35.6025 23.6834L40.3165 28.3975L41.7307 26.9832L37.0167 22.2692L35.6025 23.6834Z" fill="#2EDB43"/>
<path d="M43.0236 20.9763L43.7307 20.2692L43.7307 20.2692L43.0236 20.9763ZM24.6667 44.0473V45.0473C24.9319 45.0473 25.1862 44.9419 25.3738 44.7544L24.6667 44.0473ZM20 44.0473H19C19 44.5996 19.4477 45.0473 20 45.0473V44.0473ZM20 39.2859L19.2929 38.5788C19.1054 38.7663 19 39.0207 19 39.2859H20ZM39.0167 21.6834C39.9279 20.7722 41.4053 20.7722 42.3165 21.6834L43.7307 20.2692C42.0384 18.5769 39.2947 18.5769 37.6025 20.2692L39.0167 21.6834ZM42.3165 21.6834C43.2277 22.5946 43.2277 24.072 42.3165 24.9832L43.7307 26.3975C45.423 24.7052 45.423 21.9615 43.7307 20.2692L42.3165 21.6834ZM42.3165 24.9832L23.9596 43.3402L25.3738 44.7544L43.7307 26.3975L42.3165 24.9832ZM24.6667 43.0473H20V45.0473H24.6667V43.0473ZM37.6025 20.2692L19.2929 38.5788L20.7071 39.993L39.0167 21.6834L37.6025 20.2692ZM19 39.2859V44.0473H21V39.2859H19ZM35.6025 23.6834L40.3165 28.3975L41.7307 26.9832L37.0167 22.2692L35.6025 23.6834Z" fill="#45E655"/>
</svg>
