<svg width="64" height="64" viewBox="0 0 64 64" fill="none" xmlns="http://www.w3.org/2000/svg">
<path d="M38.6668 34.6673V42.6673M34.6668 38.6673H42.6668M24.0002 29.334H26.6668C28.1396 29.334 29.3335 28.1401 29.3335 26.6673V24.0007C29.3335 22.5279 28.1396 21.334 26.6668 21.334H24.0002C22.5274 21.334 21.3335 22.5279 21.3335 24.0007V26.6673C21.3335 28.1401 22.5274 29.334 24.0002 29.334ZM37.3335 29.334H40.0002C41.4729 29.334 42.6668 28.1401 42.6668 26.6673V24.0007C42.6668 22.5279 41.4729 21.334 40.0002 21.334H37.3335C35.8607 21.334 34.6668 22.5279 34.6668 24.0007V26.6673C34.6668 28.1401 35.8607 29.334 37.3335 29.334ZM24.0002 42.6673H26.6668C28.1396 42.6673 29.3335 41.4734 29.3335 40.0006V37.334C29.3335 35.8612 28.1396 34.6673 26.6668 34.6673H24.0002C22.5274 34.6673 21.3335 35.8612 21.3335 37.334V40.0006C21.3335 41.4734 22.5274 42.6673 24.0002 42.6673Z" stroke="#16D629" stroke-width="2" stroke-linecap="square" stroke-linejoin="round"/>
<path d="M38.6668 34.6673V42.6673M34.6668 38.6673H42.6668M24.0002 29.334H26.6668C28.1396 29.334 29.3335 28.1401 29.3335 26.6673V24.0007C29.3335 22.5279 28.1396 21.334 26.6668 21.334H24.0002C22.5274 21.334 21.3335 22.5279 21.3335 24.0007V26.6673C21.3335 28.1401 22.5274 29.334 24.0002 29.334ZM37.3335 29.334H40.0002C41.4729 29.334 42.6668 28.1401 42.6668 26.6673V24.0007C42.6668 22.5279 41.4729 21.334 40.0002 21.334H37.3335C35.8607 21.334 34.6668 22.5279 34.6668 24.0007V26.6673C34.6668 28.1401 35.8607 29.334 37.3335 29.334ZM24.0002 42.6673H26.6668C28.1396 42.6673 29.3335 41.4734 29.3335 40.0006V37.334C29.3335 35.8612 28.1396 34.6673 26.6668 34.6673H24.0002C22.5274 34.6673 21.3335 35.8612 21.3335 37.334V40.0006C21.3335 41.4734 22.5274 42.6673 24.0002 42.6673Z" stroke="#2EDB43" stroke-width="2" stroke-linecap="square" stroke-linejoin="round"/>
<path d="M38.6668 34.6673V42.6673M34.6668 38.6673H42.6668M24.0002 29.334H26.6668C28.1396 29.334 29.3335 28.1401 29.3335 26.6673V24.0007C29.3335 22.5279 28.1396 21.334 26.6668 21.334H24.0002C22.5274 21.334 21.3335 22.5279 21.3335 24.0007V26.6673C21.3335 28.1401 22.5274 29.334 24.0002 29.334ZM37.3335 29.334H40.0002C41.4729 29.334 42.6668 28.1401 42.6668 26.6673V24.0007C42.6668 22.5279 41.4729 21.334 40.0002 21.334H37.3335C35.8607 21.334 34.6668 22.5279 34.6668 24.0007V26.6673C34.6668 28.1401 35.8607 29.334 37.3335 29.334ZM24.0002 42.6673H26.6668C28.1396 42.6673 29.3335 41.4734 29.3335 40.0006V37.334C29.3335 35.8612 28.1396 34.6673 26.6668 34.6673H24.0002C22.5274 34.6673 21.3335 35.8612 21.3335 37.334V40.0006C21.3335 41.4734 22.5274 42.6673 24.0002 42.6673Z" stroke="#45E655" stroke-width="2" stroke-linecap="square" stroke-linejoin="round"/>
</svg>
