<svg width="239" height="33" viewBox="0 0 239 33" fill="none" xmlns="http://www.w3.org/2000/svg">
<g clip-path="url(#clip0_5373_18178)">
<g opacity="0.6">
<path d="M157.506 19.4668L162.047 30.8362L166.631 19.4668H168.456L162.962 32.812H161.175L155.662 19.4668H157.506Z" fill="white"/>
<path d="M177.638 31.2745C177.157 31.834 176.542 32.2623 175.85 32.5195C175.129 32.7998 174.361 32.9437 173.587 32.9439C172.932 32.9717 172.278 32.8675 171.664 32.6374C171.05 32.4074 170.488 32.0561 170.013 31.6046C169.123 30.6525 168.641 29.3908 168.668 28.0882C168.695 26.7857 169.23 25.5452 170.158 24.631C171.086 23.7169 172.335 23.2013 173.638 23.1941C174.941 23.1869 176.195 23.6886 177.133 24.5925C178.029 25.5356 178.388 26.9 178.208 28.6857H170.211C170.242 29.0828 170.354 29.4693 170.541 29.8213C170.727 30.1733 170.984 30.4834 171.295 30.7323C171.952 31.2539 172.772 31.5262 173.611 31.5009C174.186 31.4992 174.757 31.3922 175.294 31.1849C175.798 31.0196 176.247 30.7214 176.596 30.322L177.642 31.2651L177.638 31.2745ZM176.723 27.3936C176.729 27.002 176.65 26.6138 176.493 26.2551C176.336 25.8964 176.104 25.5755 175.813 25.314C175.174 24.8002 174.368 24.5385 173.549 24.5783C172.748 24.5672 171.969 24.8375 171.347 25.3423C170.716 25.8446 170.308 26.5744 170.211 27.3747H176.709L176.723 27.3936Z" fill="white"/>
<path d="M180.585 23.3617H182L182.075 24.866C182.433 24.3449 182.915 23.922 183.479 23.6361C184.043 23.3502 184.669 23.2104 185.301 23.2297C185.853 23.2068 186.405 23.299 186.92 23.5003C187.436 23.7016 187.904 24.0076 188.295 24.3991C188.69 24.8268 188.995 25.3292 189.193 25.8767C189.39 26.4242 189.476 27.0057 189.446 27.5869V32.7741H187.885V27.5869C187.906 27.1968 187.851 26.8063 187.72 26.438C187.59 26.0697 187.388 25.7309 187.126 25.4413C186.849 25.1745 186.52 24.9676 186.16 24.8337C185.8 24.6998 185.416 24.6418 185.032 24.6632C184.639 24.6555 184.249 24.7324 183.889 24.8886C183.528 25.0449 183.206 25.2768 182.943 25.5686C182.401 26.1589 182.11 26.9368 182.132 27.7378V32.7741H180.585V23.3428V23.3617Z" fill="white"/>
<path d="M194.79 23.3995H197.695V24.734H194.766V29.6948C194.766 30.8989 195.261 31.5009 196.252 31.5009C196.71 31.4915 197.159 31.3735 197.563 31.1567L198.034 32.4535C197.465 32.7346 196.844 32.8952 196.209 32.925C194.235 32.9628 193.246 31.8923 193.243 29.7137V24.734H191.357V23.3995H193.243V20.8153L194.804 20.6455L194.79 23.3995Z" fill="white"/>
<path d="M207.215 32.7743L207.14 31.2747C206.782 31.7436 206.33 32.1314 205.811 32.4128C205.293 32.6941 204.721 32.8626 204.133 32.9071C203.545 32.9517 202.955 32.8713 202.4 32.6712C201.845 32.4711 201.339 32.1559 200.915 31.7463C200.525 31.3172 200.224 30.8148 200.03 30.2684C199.836 29.7219 199.752 29.1423 199.784 28.5632V23.376H201.33V28.5632C201.308 28.9545 201.364 29.3462 201.495 29.7155C201.626 30.0847 201.83 30.4241 202.094 30.7136C202.671 31.2344 203.427 31.5128 204.204 31.4909C204.982 31.4689 205.721 31.1483 206.268 30.5957C206.809 30.0072 207.098 29.2303 207.074 28.4312V23.3807H208.63V32.7743H207.215Z" fill="white"/>
<path d="M213.186 23.3618L213.299 24.7764C213.855 23.7343 214.822 23.2156 216.19 23.2156C216.979 23.1839 217.754 23.4366 218.373 23.9276L217.67 25.2574C217.192 24.9235 216.622 24.7456 216.039 24.7481C215.304 24.7338 214.593 25.012 214.063 25.5215C213.797 25.785 213.589 26.1009 213.452 26.4492C213.314 26.7974 213.251 27.1705 213.266 27.5445V32.7742H211.705V23.3806H213.153L213.186 23.3618Z" fill="white"/>
<path d="M228.213 31.2745C227.732 31.834 227.117 32.2623 226.426 32.5195C225.704 32.7998 224.936 32.9437 224.162 32.9439C223.507 32.9723 222.853 32.8683 222.239 32.6382C221.624 32.4081 221.063 32.0566 220.588 31.6046C219.698 30.6525 219.216 29.3908 219.243 28.0882C219.27 26.7857 219.805 25.5452 220.733 24.631C221.662 23.7169 222.91 23.2013 224.213 23.1941C225.516 23.1869 226.77 23.6886 227.708 24.5925C228.598 25.5356 228.956 26.9 228.783 28.6857H220.772C220.804 29.0826 220.917 29.4687 221.103 29.8205C221.29 30.1724 221.546 30.4826 221.856 30.7323C222.515 31.2531 223.337 31.5253 224.176 31.5009C224.752 31.4981 225.322 31.391 225.86 31.1849C226.363 31.0183 226.812 30.7204 227.161 30.322L228.208 31.2651L228.213 31.2745ZM227.27 27.3936C227.275 27.002 227.197 26.6138 227.04 26.2551C226.883 25.8964 226.651 25.5755 226.36 25.314C225.72 24.8002 224.915 24.5385 224.096 24.5783C223.296 24.5692 222.517 24.8393 221.894 25.3423C221.266 25.8529 220.863 26.5893 220.772 27.3936H227.27Z" fill="white"/>
<path d="M237.171 25.4745C236.439 24.8416 235.492 24.5141 234.526 24.5597C233.946 24.5268 233.367 24.6455 232.847 24.9039C232.65 24.9922 232.485 25.1373 232.371 25.3205C232.258 25.5037 232.202 25.7166 232.21 25.9319C232.21 26.677 232.996 27.1391 234.568 27.3183C235.011 27.3702 235.379 27.4173 235.662 27.4692C236.014 27.539 236.36 27.6319 236.7 27.7474C237.039 27.8486 237.358 28.0082 237.643 28.219C237.897 28.4412 238.107 28.7101 238.26 29.0112C238.441 29.3735 238.526 29.7763 238.506 30.1807C238.516 30.5973 238.416 31.0092 238.216 31.3745C238.015 31.7398 237.721 32.0454 237.364 32.2603C236.525 32.7764 235.552 33.0324 234.568 32.9959C232.704 32.9959 231.305 32.4065 230.371 31.2276L231.262 30.143C231.67 30.6267 232.185 31.0089 232.766 31.2593C233.347 31.5098 233.979 31.6216 234.611 31.586C235.177 31.5977 235.738 31.48 236.252 31.2417C236.472 31.1506 236.659 30.9952 236.79 30.7958C236.92 30.5964 236.987 30.3623 236.982 30.1241C236.997 29.9077 236.944 29.6922 236.829 29.5078C236.715 29.3234 236.546 29.1794 236.346 29.0961C235.746 28.839 235.11 28.6798 234.46 28.6245C233.999 28.5745 233.542 28.4925 233.092 28.3793C232.693 28.269 232.304 28.1222 231.932 27.9408C231.567 27.7688 231.258 27.4975 231.041 27.158C230.795 26.7136 230.691 26.2052 230.74 25.7001C230.79 25.1949 230.992 24.7167 231.319 24.3286C231.701 23.9042 232.189 23.5899 232.734 23.4185C233.314 23.2344 233.922 23.1499 234.53 23.1686C235.842 23.1147 237.124 23.5653 238.114 24.4276L237.223 25.4556L237.171 25.4745Z" fill="white"/>
</g>
<path d="M89.8452 0.00390625H78.9285L72.4728 8.78441L66.0595 0.00390625H55.1428L67.0121 16.254L54.9023 32.8341H65.8238L72.4728 23.7235L79.1643 32.8341H90.081L77.9288 16.254L89.8452 0.00390625Z" fill="white"/>
<path d="M47.8618 0.00390625H38.4824V32.8341H47.8618V0.00390625Z" fill="white"/>
<path d="M106.497 0H97.1172V32.8302H106.497V0Z" fill="white"/>
<path d="M136.979 17.2215L123.342 0.0282938H115.877V32.8302L125.252 32.8019L125.256 15.6323L138.936 32.8302H146.364V0H136.984L136.979 17.2215Z" fill="white"/>
<path d="M26.1437 15.5891L26.4219 15.4099C26.7992 15.16 30.1143 12.8776 30.1143 8.87873C30.1143 3.73869 26.1154 0.00390625 20.5981 0.00390625H0.943359V32.8389H21.4375C27.3179 32.8389 31.4205 29.0145 31.4205 23.5349C31.4205 18.3477 26.9501 15.9899 26.4408 15.7353L26.1437 15.5891ZM10.4359 6.91231H18.146C20.103 6.91231 21.3668 8.06292 21.3668 9.84543C21.3668 11.2177 20.5227 12.6748 18.146 12.6748H10.4359V6.91231ZM18.2073 26.0625H10.4406V19.4936H18.2073C20.4142 19.4936 21.843 20.7857 21.843 22.7946C21.843 24.8034 20.3482 26.0625 18.2073 26.0625Z" fill="white"/>
</g>
<defs>
<clipPath id="clip0_5373_18178">
<rect width="237.564" height="33" fill="white" transform="translate(0.941406)"/>
</clipPath>
</defs>
</svg>
