<svg width="221" height="41" viewBox="0 0 221 41" fill="none" xmlns="http://www.w3.org/2000/svg">
<path d="M3.83791 32.5625C3.61235 32.5625 3.40935 32.4836 3.22891 32.3257C3.07102 32.1452 2.99207 31.9422 2.99207 31.7167V9.75884C2.99207 9.51072 3.07102 9.30772 3.22891 9.14984C3.38679 8.96939 3.58979 8.87917 3.83791 8.87917H13.1421C16.1194 8.87917 18.4426 9.55584 20.1117 10.9092C21.8034 12.2625 22.6492 14.1684 22.6492 16.627C22.6492 18.2059 22.2771 19.5479 21.5327 20.6532C20.811 21.7584 19.8072 22.6155 18.5216 23.2245L23.0891 31.4798C23.1567 31.6152 23.1906 31.7392 23.1906 31.852C23.1906 32.0324 23.1229 32.2016 22.9876 32.3595C22.8522 32.4948 22.6831 32.5625 22.4801 32.5625H17.7096C17.0555 32.5625 16.5931 32.258 16.3224 31.649L12.6007 24.3072H9.35274V31.7167C9.35274 31.9648 9.26252 32.1678 9.08207 32.3257C8.92418 32.4836 8.72118 32.5625 8.47307 32.5625H3.83791ZM13.1082 19.3337C14.0781 19.3337 14.8112 19.0968 15.3074 18.6232C15.8262 18.1269 16.0856 17.4503 16.0856 16.5932C16.0856 15.7361 15.8262 15.0481 15.3074 14.5293C14.8112 14.0106 14.0781 13.7512 13.1082 13.7512H9.35274V19.3337H13.1082ZM27.3288 12.5332C27.0807 12.5332 26.8777 12.4542 26.7198 12.2963C26.5619 12.1159 26.483 11.9016 26.483 11.6535V8.507C26.483 8.25889 26.5619 8.05589 26.7198 7.898C26.9003 7.71756 27.1033 7.62734 27.3288 7.62734H31.558C31.8061 7.62734 32.0091 7.71756 32.167 7.898C32.3474 8.05589 32.4376 8.25889 32.4376 8.507V11.6535C32.4376 11.9016 32.3474 12.1159 32.167 12.2963C32.0091 12.4542 31.8061 12.5332 31.558 12.5332H27.3288ZM27.3288 32.5625C27.1033 32.5625 26.9003 32.4836 26.7198 32.3257C26.5619 32.1452 26.483 31.9422 26.483 31.7167V15.815C26.483 15.5669 26.5619 15.3639 26.7198 15.206C26.9003 15.0481 27.1033 14.9692 27.3288 14.9692H31.558C31.8061 14.9692 32.0091 15.0481 32.167 15.206C32.3474 15.3639 32.4376 15.5669 32.4376 15.815V31.7167C32.4376 31.9648 32.3474 32.1678 32.167 32.3257C32.0091 32.4836 31.8061 32.5625 31.558 32.5625H27.3288ZM47.6301 32.9008C45.352 32.9008 43.604 32.1565 42.386 30.6678V31.7167C42.386 31.9422 42.307 32.1452 42.1491 32.3257C41.9912 32.4836 41.7882 32.5625 41.5401 32.5625H37.514C37.2659 32.5625 37.0516 32.4836 36.8711 32.3257C36.7132 32.1678 36.6343 31.9648 36.6343 31.7167V9.38667C36.6343 9.13856 36.7132 8.93556 36.8711 8.77767C37.0516 8.61978 37.2659 8.54084 37.514 8.54084H41.8785C42.1266 8.54084 42.3296 8.61978 42.4875 8.77767C42.6454 8.93556 42.7243 9.13856 42.7243 9.38667V16.5932C43.9649 15.2849 45.6001 14.6308 47.6301 14.6308C49.7955 14.6308 51.5097 15.3413 52.7728 16.7623C54.0359 18.1608 54.7126 20.0893 54.8028 22.5478C54.8253 22.8411 54.8366 23.2471 54.8366 23.7658C54.8366 24.2621 54.8253 24.6568 54.8028 24.95C54.7126 27.4988 54.0359 29.4611 52.7728 30.837C51.5322 32.2129 49.818 32.9008 47.6301 32.9008ZM45.6678 28.198C46.6828 28.198 47.4046 27.9048 47.8331 27.3183C48.2842 26.7093 48.5436 25.8748 48.6113 24.8147C48.6338 24.5891 48.6451 24.2395 48.6451 23.7658C48.6451 23.2922 48.6338 22.9426 48.6113 22.717C48.5436 21.6569 48.2842 20.8336 47.8331 20.2472C47.4046 19.6382 46.6828 19.3337 45.6678 19.3337C44.7205 19.3337 43.9987 19.6269 43.5025 20.2133C43.0288 20.7772 42.7694 21.499 42.7243 22.3787C42.7017 22.6719 42.6905 23.0892 42.6905 23.6305C42.6905 24.1718 42.7017 24.6004 42.7243 24.9162C42.7694 25.8635 43.0288 26.6529 43.5025 27.2845C43.9761 27.8935 44.6979 28.198 45.6678 28.198ZM69.4117 32.9008C67.1335 32.9008 65.3855 32.1565 64.1675 30.6678V31.7167C64.1675 31.9422 64.0885 32.1452 63.9307 32.3257C63.7728 32.4836 63.5698 32.5625 63.3217 32.5625H59.2955C59.0474 32.5625 58.8331 32.4836 58.6527 32.3257C58.4948 32.1678 58.4158 31.9648 58.4158 31.7167V9.38667C58.4158 9.13856 58.4948 8.93556 58.6527 8.77767C58.8331 8.61978 59.0474 8.54084 59.2955 8.54084H63.66C63.9081 8.54084 64.1111 8.61978 64.269 8.77767C64.4269 8.93556 64.5058 9.13856 64.5058 9.38667V16.5932C65.7464 15.2849 67.3817 14.6308 69.4117 14.6308C71.577 14.6308 73.2912 15.3413 74.5543 16.7623C75.8174 18.1608 76.4941 20.0893 76.5843 22.5478C76.6069 22.8411 76.6182 23.2471 76.6182 23.7658C76.6182 24.2621 76.6069 24.6568 76.5843 24.95C76.4941 27.4988 75.8174 29.4611 74.5543 30.837C73.3138 32.2129 71.5995 32.9008 69.4117 32.9008ZM67.4493 28.198C68.4643 28.198 69.1861 27.9048 69.6147 27.3183C70.0658 26.7093 70.3252 25.8748 70.3928 24.8147C70.4154 24.5891 70.4267 24.2395 70.4267 23.7658C70.4267 23.2922 70.4154 22.9426 70.3928 22.717C70.3252 21.6569 70.0658 20.8336 69.6147 20.2472C69.1861 19.6382 68.4643 19.3337 67.4493 19.3337C66.502 19.3337 65.7802 19.6269 65.284 20.2133C64.8103 20.7772 64.5509 21.499 64.5058 22.3787C64.4833 22.6719 64.472 23.0892 64.472 23.6305C64.472 24.1718 64.4833 24.6004 64.5058 24.9162C64.5509 25.8635 64.8103 26.6529 65.284 27.2845C65.7577 27.8935 66.4794 28.198 67.4493 28.198ZM81.0432 12.5332C80.7951 12.5332 80.5921 12.4542 80.4342 12.2963C80.2763 12.1159 80.1974 11.9016 80.1974 11.6535V8.507C80.1974 8.25889 80.2763 8.05589 80.4342 7.898C80.6146 7.71756 80.8176 7.62734 81.0432 7.62734H85.2724C85.5205 7.62734 85.7235 7.71756 85.8814 7.898C86.0618 8.05589 86.152 8.25889 86.152 8.507V11.6535C86.152 11.9016 86.0618 12.1159 85.8814 12.2963C85.7235 12.4542 85.5205 12.5332 85.2724 12.5332H81.0432ZM81.0432 32.5625C80.8176 32.5625 80.6146 32.4836 80.4342 32.3257C80.2763 32.1452 80.1974 31.9422 80.1974 31.7167V15.815C80.1974 15.5669 80.2763 15.3639 80.4342 15.206C80.6146 15.0481 80.8176 14.9692 81.0432 14.9692H85.2724C85.5205 14.9692 85.7235 15.0481 85.8814 15.206C86.0618 15.3639 86.152 15.5669 86.152 15.815V31.7167C86.152 31.9648 86.0618 32.1678 85.8814 32.3257C85.7235 32.4836 85.5205 32.5625 85.2724 32.5625H81.0432ZM99.5852 32.5625C94.8034 32.5625 92.4125 30.3182 92.4125 25.8297V19.5705H89.7397C89.5141 19.5705 89.3111 19.4916 89.1307 19.3337C88.9728 19.1532 88.8938 18.9502 88.8938 18.7247V15.815C88.8938 15.5669 88.9728 15.3639 89.1307 15.206C89.3111 15.0481 89.5141 14.9692 89.7397 14.9692H92.4125V9.38667C92.4125 9.13856 92.4914 8.93556 92.6493 8.77767C92.8298 8.61978 93.0328 8.54084 93.2583 8.54084H97.4198C97.6679 8.54084 97.8709 8.61978 98.0288 8.77767C98.1867 8.93556 98.2657 9.13856 98.2657 9.38667V14.9692H102.495C102.743 14.9692 102.946 15.0481 103.104 15.206C103.284 15.3639 103.374 15.5669 103.374 15.815V18.7247C103.374 18.9728 103.284 19.1758 103.104 19.3337C102.946 19.4916 102.743 19.5705 102.495 19.5705H98.2657V25.3222C98.2657 26.1116 98.4123 26.7093 98.7055 27.1153C98.9987 27.5213 99.4724 27.7243 100.126 27.7243H102.799C103.047 27.7243 103.25 27.8146 103.408 27.995C103.566 28.1529 103.645 28.3559 103.645 28.604V31.7167C103.645 31.9422 103.566 32.1452 103.408 32.3257C103.25 32.4836 103.047 32.5625 102.799 32.5625H99.5852Z" fill="white"/>
<path d="M124.267 32.9008C121.335 32.9008 119.136 32.0776 117.67 30.431C116.204 28.7619 115.414 26.5289 115.301 23.732C115.279 23.123 115.268 22.1306 115.268 20.7547C115.268 19.3562 115.279 18.3412 115.301 17.7097C115.414 14.9128 116.204 12.6911 117.67 11.0445C119.136 9.37539 121.335 8.54084 124.267 8.54084C126.275 8.54084 127.944 8.913 129.275 9.65734C130.605 10.3791 131.586 11.3039 132.218 12.4317C132.872 13.5369 133.233 14.6759 133.301 15.8488V15.9165C133.301 16.0969 133.233 16.2436 133.098 16.3563C132.962 16.4691 132.793 16.5255 132.59 16.5255H131.914C131.508 16.5255 131.259 16.2887 131.169 15.815C130.741 13.8978 129.962 12.5444 128.835 11.755C127.707 10.9656 126.184 10.5708 124.267 10.5708C122.147 10.5708 120.5 11.1686 119.328 12.364C118.155 13.5594 117.523 15.3977 117.433 17.8788C117.41 18.4878 117.399 19.4239 117.399 20.687C117.399 21.9501 117.41 22.9087 117.433 23.5628C117.523 26.0439 118.155 27.8822 119.328 29.0777C120.5 30.2731 122.147 30.8708 124.267 30.8708C126.184 30.8708 127.707 30.4761 128.835 29.6867C129.962 28.8972 130.741 27.5439 131.169 25.6267C131.259 25.153 131.508 24.9162 131.914 24.9162H132.59C132.793 24.9162 132.962 24.9838 133.098 25.1192C133.256 25.2319 133.323 25.3898 133.301 25.5928C133.233 26.7657 132.872 27.9161 132.218 29.0438C131.586 30.1491 130.605 31.0738 129.275 31.8182C127.944 32.5399 126.275 32.9008 124.267 32.9008ZM142.922 32.9008C141.839 32.9008 140.835 32.6753 139.911 32.2242C138.986 31.7731 138.242 31.1641 137.678 30.3972C137.136 29.6303 136.866 28.7844 136.866 27.8597C136.866 26.371 137.463 25.153 138.659 24.2057C139.877 23.2583 141.512 22.6493 143.565 22.3787L148.91 21.6343V20.4502C148.91 19.2096 148.527 18.2623 147.76 17.6082C147.016 16.9315 145.865 16.5932 144.309 16.5932C143.159 16.5932 142.211 16.8187 141.467 17.2698C140.745 17.7209 140.283 18.2623 140.08 18.8938C139.99 19.1645 139.877 19.3562 139.741 19.469C139.629 19.5592 139.471 19.6043 139.268 19.6043H138.794C138.591 19.6043 138.411 19.5367 138.253 19.4013C138.117 19.2434 138.05 19.063 138.05 18.86C138.05 18.3638 138.275 17.7886 138.726 17.1345C139.178 16.4578 139.877 15.8714 140.824 15.3752C141.771 14.8789 142.933 14.6308 144.309 14.6308C146.722 14.6308 148.437 15.206 149.452 16.3563C150.467 17.5067 150.974 18.9051 150.974 20.5517V31.8182C150.974 32.0437 150.906 32.2242 150.771 32.3595C150.636 32.4948 150.455 32.5625 150.23 32.5625H149.655C149.429 32.5625 149.249 32.4948 149.113 32.3595C148.978 32.2242 148.91 32.0437 148.91 31.8182V30.228C148.414 30.9723 147.681 31.6039 146.711 32.1227C145.764 32.6414 144.501 32.9008 142.922 32.9008ZM143.26 30.9385C144.907 30.9385 146.26 30.3972 147.32 29.3145C148.38 28.2318 148.91 26.6755 148.91 24.6455V23.4952L144.546 24.1042C142.696 24.3523 141.298 24.7808 140.35 25.3898C139.403 25.9988 138.929 26.7657 138.929 27.6905C138.929 28.7281 139.358 29.5288 140.215 30.0927C141.095 30.6566 142.11 30.9385 143.26 30.9385ZM157.441 38.9908C157.215 38.9908 157.035 38.9232 156.899 38.7878C156.764 38.6525 156.696 38.4721 156.696 38.2465V15.7135C156.696 15.4879 156.764 15.3075 156.899 15.1722C157.035 15.0368 157.215 14.9692 157.441 14.9692H158.016C158.241 14.9692 158.422 15.0368 158.557 15.1722C158.693 15.3075 158.76 15.4879 158.76 15.7135V17.3037C160.068 15.5218 161.963 14.6308 164.444 14.6308C166.88 14.6308 168.673 15.409 169.824 16.9653C170.997 18.4991 171.617 20.3938 171.685 22.6493C171.707 22.8749 171.718 23.2471 171.718 23.7658C171.718 24.2846 171.707 24.6568 171.685 24.8823C171.617 27.1379 170.997 29.0438 169.824 30.6002C168.673 32.1339 166.88 32.9008 164.444 32.9008C161.986 32.9008 160.091 32.0099 158.76 30.228V38.2465C158.76 38.4721 158.693 38.6525 158.557 38.7878C158.422 38.9232 158.241 38.9908 158.016 38.9908H157.441ZM164.241 30.9385C166.068 30.9385 167.399 30.3633 168.234 29.213C169.091 28.0401 169.553 26.5402 169.621 24.7132C169.643 24.4876 169.655 24.1718 169.655 23.7658C169.655 21.6682 169.249 19.9539 168.437 18.6232C167.625 17.2698 166.226 16.5932 164.241 16.5932C162.459 16.5932 161.117 17.1909 160.215 18.3863C159.313 19.5592 158.828 20.9464 158.76 22.5478L158.726 23.8673L158.76 25.1868C158.783 26.1567 158.997 27.0815 159.403 27.9612C159.809 28.8183 160.418 29.5288 161.23 30.0927C162.042 30.6566 163.046 30.9385 164.241 30.9385ZM177.032 11.349C176.807 11.349 176.626 11.2813 176.491 11.146C176.355 11.0107 176.288 10.8302 176.288 10.6047V9.319C176.288 9.09345 176.355 8.913 176.491 8.77767C176.626 8.61978 176.807 8.54084 177.032 8.54084H178.318C178.543 8.54084 178.724 8.61978 178.859 8.77767C179.017 8.913 179.096 9.09345 179.096 9.319V10.6047C179.096 10.8302 179.017 11.0107 178.859 11.146C178.724 11.2813 178.543 11.349 178.318 11.349H177.032ZM177.404 32.5625C177.179 32.5625 176.998 32.4948 176.863 32.3595C176.728 32.2242 176.66 32.0437 176.66 31.8182V15.7135C176.66 15.4879 176.728 15.3075 176.863 15.1722C176.998 15.0368 177.179 14.9692 177.404 14.9692H177.979C178.205 14.9692 178.385 15.0368 178.521 15.1722C178.656 15.3075 178.724 15.4879 178.724 15.7135V31.8182C178.724 32.0437 178.656 32.2242 178.521 32.3595C178.385 32.4948 178.205 32.5625 177.979 32.5625H177.404ZM190.452 32.5625C188.783 32.5625 187.599 32.0663 186.9 31.0738C186.201 30.0588 185.851 28.6717 185.851 26.9123V16.9315H183.212C182.986 16.9315 182.806 16.8638 182.671 16.7285C182.535 16.5932 182.468 16.4127 182.468 16.1872V15.7135C182.468 15.4879 182.535 15.3075 182.671 15.1722C182.806 15.0368 182.986 14.9692 183.212 14.9692H185.851V9.28517C185.851 9.05961 185.919 8.87917 186.054 8.74384C186.189 8.6085 186.37 8.54084 186.595 8.54084H187.17C187.396 8.54084 187.576 8.6085 187.712 8.74384C187.847 8.87917 187.915 9.05961 187.915 9.28517V14.9692H192.11C192.336 14.9692 192.516 15.0368 192.651 15.1722C192.787 15.3075 192.854 15.4879 192.854 15.7135V16.1872C192.854 16.4127 192.787 16.5932 192.651 16.7285C192.516 16.8638 192.336 16.9315 192.11 16.9315H187.915V26.777C187.915 28.0401 188.118 28.9987 188.524 29.6528C188.952 30.2844 189.652 30.6002 190.621 30.6002H192.448C192.674 30.6002 192.854 30.6678 192.99 30.8032C193.125 30.9385 193.193 31.1189 193.193 31.3445V31.8182C193.193 32.0437 193.125 32.2242 192.99 32.3595C192.854 32.4948 192.674 32.5625 192.448 32.5625H190.452ZM201.765 32.9008C200.683 32.9008 199.679 32.6753 198.754 32.2242C197.829 31.7731 197.085 31.1641 196.521 30.3972C195.98 29.6303 195.709 28.7844 195.709 27.8597C195.709 26.371 196.307 25.153 197.502 24.2057C198.72 23.2583 200.356 22.6493 202.408 22.3787L207.754 21.6343V20.4502C207.754 19.2096 207.37 18.2623 206.604 17.6082C205.859 16.9315 204.709 16.5932 203.153 16.5932C202.002 16.5932 201.055 16.8187 200.311 17.2698C199.589 17.7209 199.126 18.2623 198.923 18.8938C198.833 19.1645 198.72 19.3562 198.585 19.469C198.472 19.5592 198.314 19.6043 198.111 19.6043H197.638C197.435 19.6043 197.254 19.5367 197.096 19.4013C196.961 19.2434 196.893 19.063 196.893 18.86C196.893 18.3638 197.119 17.7886 197.57 17.1345C198.021 16.4578 198.72 15.8714 199.668 15.3752C200.615 14.8789 201.777 14.6308 203.153 14.6308C205.566 14.6308 207.28 15.206 208.295 16.3563C209.31 17.5067 209.818 18.9051 209.818 20.5517V31.8182C209.818 32.0437 209.75 32.2242 209.615 32.3595C209.479 32.4948 209.299 32.5625 209.073 32.5625H208.498C208.273 32.5625 208.092 32.4948 207.957 32.3595C207.822 32.2242 207.754 32.0437 207.754 31.8182V30.228C207.258 30.9723 206.525 31.6039 205.555 32.1227C204.607 32.6414 203.344 32.9008 201.765 32.9008ZM202.104 30.9385C203.75 30.9385 205.104 30.3972 206.164 29.3145C207.224 28.2318 207.754 26.6755 207.754 24.6455V23.4952L203.389 24.1042C201.54 24.3523 200.141 24.7808 199.194 25.3898C198.247 25.9988 197.773 26.7657 197.773 27.6905C197.773 28.7281 198.202 29.5288 199.059 30.0927C199.938 30.6566 200.953 30.9385 202.104 30.9385ZM216.284 32.5625C216.059 32.5625 215.878 32.4948 215.743 32.3595C215.608 32.2242 215.54 32.0437 215.54 31.8182V9.28517C215.54 9.05961 215.608 8.87917 215.743 8.74384C215.878 8.6085 216.059 8.54084 216.284 8.54084H216.859C217.085 8.54084 217.265 8.6085 217.401 8.74384C217.536 8.87917 217.604 9.05961 217.604 9.28517V31.8182C217.604 32.0437 217.536 32.2242 217.401 32.3595C217.265 32.4948 217.085 32.5625 216.859 32.5625H216.284Z" fill="white"/>
</svg>
