<svg width="159" height="51" viewBox="0 0 159 51" fill="none" xmlns="http://www.w3.org/2000/svg">
<path d="M19.2444 30.4702C19.2444 31.6882 18.9399 32.8159 18.3309 33.8535C17.7219 34.8685 16.8197 35.6918 15.6243 36.3233C14.4288 36.9323 12.974 37.2368 11.2598 37.2368C9.56809 37.2368 8.05687 36.9549 6.72609 36.391C5.39531 35.8046 4.32392 34.97 3.51192 33.8873C2.72248 32.8047 2.27137 31.5416 2.15859 30.098H7.23359C7.34637 31.0679 7.72981 31.8799 8.38392 32.534C9.06059 33.1656 9.95153 33.4813 11.0568 33.4813C12.0492 33.4813 12.8048 33.2219 13.3236 32.7032C13.8649 32.1618 14.1356 31.4739 14.1356 30.6393C14.1356 29.895 13.9213 29.286 13.4928 28.8123C13.0642 28.3161 12.5229 27.9214 11.8688 27.6282C11.2146 27.3349 10.3124 26.9966 9.16209 26.6132C7.67342 26.1169 6.45542 25.632 5.50809 25.1583C4.56075 24.6621 3.74875 23.9516 3.07209 23.0268C2.41798 22.1021 2.09092 20.8953 2.09092 19.4067C2.09092 17.3541 2.82398 15.7414 4.29009 14.5685C5.77875 13.3731 7.74109 12.7753 10.1771 12.7753C12.7033 12.7753 14.7108 13.3843 16.1994 14.6023C17.7106 15.8203 18.5678 17.4443 18.7708 19.4743H13.6281C13.4928 18.6172 13.1319 17.918 12.5454 17.3767C11.959 16.8128 11.1583 16.5308 10.1433 16.5308C9.26359 16.5308 8.55309 16.7677 8.01175 17.2413C7.47042 17.6924 7.19975 18.3578 7.19975 19.2375C7.19975 19.9367 7.40275 20.5232 7.80875 20.9968C8.23731 21.4479 8.76737 21.8201 9.39892 22.1133C10.053 22.4066 10.9327 22.7336 12.0379 23.0945C13.5717 23.6358 14.8123 24.1433 15.7596 24.617C16.7295 25.0907 17.5528 25.8012 18.2294 26.7485C18.9061 27.6958 19.2444 28.9364 19.2444 30.4702ZM30.4388 18.0195C32.0176 18.0195 33.371 18.3917 34.4988 19.136C35.6265 19.8803 36.4273 20.8841 36.9009 22.1472V18.2563H41.6376V37H36.9009V33.0753C36.4273 34.3384 35.6265 35.3534 34.4988 36.1203C33.371 36.8647 32.0176 37.2368 30.4388 37.2368C28.8599 37.2368 27.4389 36.8534 26.1758 36.0865C24.9126 35.3196 23.9202 34.2144 23.1984 32.7708C22.4992 31.3047 22.1496 29.5905 22.1496 27.6282C22.1496 25.6658 22.4992 23.9629 23.1984 22.5193C23.9202 21.0532 24.9126 19.9367 26.1758 19.1698C27.4389 18.4029 28.8599 18.0195 30.4388 18.0195ZM31.9274 22.181C30.4388 22.181 29.2433 22.6659 28.3411 23.6358C27.4389 24.6057 26.9878 25.9365 26.9878 27.6282C26.9878 29.3198 27.4389 30.6506 28.3411 31.6205C29.2433 32.5678 30.4388 33.0415 31.9274 33.0415C33.371 33.0415 34.5551 32.5566 35.4799 31.5867C36.4273 30.5942 36.9009 29.2747 36.9009 27.6282C36.9009 25.9591 36.4273 24.6396 35.4799 23.6697C34.5551 22.6772 33.371 22.181 31.9274 22.181ZM57.4642 17.9857C59.6295 17.9857 61.355 18.6962 62.6407 20.1172C63.9264 21.5382 64.5692 23.5343 64.5692 26.1057V37H59.8325V26.647C59.8325 25.1583 59.4491 24.008 58.6822 23.196C57.9153 22.3614 56.8665 21.9442 55.5357 21.9442C54.1824 21.9442 53.0997 22.384 52.2877 23.2637C51.4757 24.1433 51.0697 25.4064 51.0697 27.053V37H46.2992V18.2563H51.0697V22.0118C51.5659 20.7487 52.3779 19.7676 53.5057 19.0683C54.656 18.3466 55.9755 17.9857 57.4642 17.9857ZM79.1196 32.9062V37H76.616C74.5183 37 72.9056 36.4925 71.7778 35.4775C70.6726 34.4625 70.12 32.7708 70.12 30.4025V22.2825H67.5148V18.2563H70.12V13.6212H74.8905V18.2563H79.0858V22.2825H74.8905V30.4702C74.8905 31.3724 75.0709 32.0039 75.4318 32.3648C75.7927 32.7257 76.4017 32.9062 77.2588 32.9062H79.1196ZM82.3494 12.8768C82.3494 12.1099 82.6201 11.4897 83.1614 11.016C83.7027 10.5198 84.4132 10.2717 85.2929 10.2717C86.1726 10.2717 86.8831 10.5198 87.4244 11.016C87.9657 11.4897 88.2364 12.1099 88.2364 12.8768C88.2364 13.6212 87.9657 14.2414 87.4244 14.7377C86.8831 15.2113 86.1726 15.4482 85.2929 15.4482C84.4132 15.4482 83.7027 15.2113 83.1614 14.7377C82.6201 14.2414 82.3494 13.6212 82.3494 12.8768ZM87.6612 18.2563V37H82.8907V18.2563H87.6612ZM99.657 18.0195C101.236 18.0195 102.589 18.3917 103.717 19.136C104.845 19.8803 105.645 20.8841 106.119 22.1472V18.2563H110.856V37H106.119V33.0753C105.645 34.3384 104.845 35.3534 103.717 36.1203C102.589 36.8647 101.236 37.2368 99.657 37.2368C98.0781 37.2368 96.6571 36.8534 95.394 36.0865C94.1309 35.3196 93.1384 34.2144 92.4167 32.7708C91.7174 31.3047 91.3678 29.5905 91.3678 27.6282C91.3678 25.6658 91.7174 23.9629 92.4167 22.5193C93.1384 21.0532 94.1309 19.9367 95.394 19.1698C96.6571 18.4029 98.0781 18.0195 99.657 18.0195ZM101.146 22.181C99.657 22.181 98.4615 22.6659 97.5593 23.6358C96.6571 24.6057 96.206 25.9365 96.206 27.6282C96.206 29.3198 96.6571 30.6506 97.5593 31.6205C98.4615 32.5678 99.657 33.0415 101.146 33.0415C102.589 33.0415 103.773 32.5566 104.698 31.5867C105.645 30.5942 106.119 29.2747 106.119 27.6282C106.119 25.9591 105.645 24.6396 104.698 23.6697C103.773 22.6772 102.589 22.181 101.146 22.181ZM122.859 18.0195C124.438 18.0195 125.791 18.3917 126.919 19.136C128.047 19.8803 128.848 20.8841 129.321 22.1472V18.2563H134.058V37.0677C134.058 38.8044 133.708 40.3608 133.009 41.7367C132.333 43.1351 131.306 44.2291 129.93 45.0185C128.577 45.8079 126.931 46.2027 124.991 46.2027C122.284 46.2027 120.096 45.5598 118.427 44.2742C116.758 42.9885 115.743 41.2404 115.382 39.03H120.085C120.356 39.9773 120.874 40.7104 121.641 41.2292C122.431 41.7705 123.434 42.0412 124.652 42.0412C126.051 42.0412 127.179 41.6239 128.036 40.7893C128.893 39.9773 129.321 38.7368 129.321 37.0677V33.0753C128.848 34.3384 128.047 35.3534 126.919 36.1203C125.791 36.8647 124.438 37.2368 122.859 37.2368C121.28 37.2368 119.859 36.8534 118.596 36.0865C117.333 35.3196 116.341 34.2144 115.619 32.7708C114.92 31.3047 114.57 29.5905 114.57 27.6282C114.57 25.6658 114.92 23.9629 115.619 22.5193C116.341 21.0532 117.333 19.9367 118.596 19.1698C119.859 18.4029 121.28 18.0195 122.859 18.0195ZM124.348 22.181C122.859 22.181 121.664 22.6659 120.762 23.6358C119.859 24.6057 119.408 25.9365 119.408 27.6282C119.408 29.3198 119.859 30.6506 120.762 31.6205C121.664 32.5678 122.859 33.0415 124.348 33.0415C125.791 33.0415 126.976 32.5566 127.9 31.5867C128.848 30.5942 129.321 29.2747 129.321 27.6282C129.321 25.9591 128.848 24.6396 127.9 23.6697C126.976 22.6772 125.791 22.181 124.348 22.181ZM147.381 18.0195C149.208 18.0195 150.843 18.4029 152.287 19.1698C153.753 19.9367 154.903 21.0532 155.738 22.5193C156.572 23.9629 156.99 25.6658 156.99 27.6282C156.99 29.5905 156.572 31.2934 155.738 32.737C154.903 34.1806 153.753 35.2971 152.287 36.0865C150.843 36.8534 149.208 37.2368 147.381 37.2368C145.554 37.2368 143.907 36.8534 142.441 36.0865C140.998 35.2971 139.859 34.1806 139.024 32.737C138.19 31.2934 137.772 29.5905 137.772 27.6282C137.772 25.6658 138.19 23.9629 139.024 22.5193C139.859 21.0532 140.998 19.9367 142.441 19.1698C143.907 18.4029 145.554 18.0195 147.381 18.0195ZM147.381 22.1472C146.05 22.1472 144.922 22.6208 143.998 23.5682C143.073 24.4929 142.611 25.8463 142.611 27.6282C142.611 29.4101 143.073 30.7747 143.998 31.722C144.922 32.6468 146.05 33.1092 147.381 33.1092C148.712 33.1092 149.84 32.6468 150.764 31.722C151.689 30.7747 152.152 29.4101 152.152 27.6282C152.152 25.8463 151.689 24.4929 150.764 23.5682C149.84 22.6208 148.712 22.1472 147.381 22.1472Z" fill="white"/>
</svg>
