<svg width="160" height="57" viewBox="0 0 160 57" fill="none" xmlns="http://www.w3.org/2000/svg">
<path d="M101.486 3.30859H99.9668V56.4972H101.486V3.30859Z" fill="white"/>
<path d="M21.6201 24.3348C21.6738 26.4031 20.9957 28.424 19.7053 30.0412C17.8133 32.3207 14.8119 33.5213 10.686 33.5213C9.37646 33.4393 8.08357 33.1837 6.84125 32.7614C5.68689 32.3613 4.4873 32.1061 3.27002 32.0016C3.17364 32.0071 3.07994 32.0354 2.9967 32.0843C2.91346 32.1332 2.84305 32.2012 2.79132 32.2827C2.59418 32.6594 2.48017 33.074 2.45699 33.4985H1.41602V22.9063H2.4114L3.33081 25.9457C3.83877 27.3464 4.65702 28.614 5.72429 29.6537C7.31995 31.3051 9.00426 32.1308 10.7772 32.1308C13.1859 32.1308 14.8803 31.4697 15.8681 30.1324C16.4559 29.326 16.7629 28.349 16.7419 27.3514C16.7479 26.716 16.607 26.0877 16.3302 25.5157C16.0534 24.9437 15.6482 24.4434 15.1463 24.0537C14.0825 23.1571 11.7751 21.878 8.22416 20.2165C6.18633 19.3332 4.44551 17.8826 3.20923 16.0374C2.31402 14.6836 1.82614 13.1013 1.80353 11.4784C1.76003 10.2405 1.98777 9.00803 2.47079 7.86741C2.95382 6.72679 3.68044 5.7056 4.59973 4.87541C6.10593 3.45254 8.09736 2.65651 10.1693 2.64908C11.8626 2.63326 13.5461 2.90826 15.1463 3.46211C16.088 3.86175 17.0757 4.14252 18.0868 4.29793C18.3832 4.29793 18.6263 4.10797 18.8467 3.71286C19.067 3.31774 19.2342 2.95302 19.409 2.67948H20.4119V12.2306H19.5305C18.0489 8.95573 16.8787 6.91177 15.9973 6.08355C15.3287 5.43282 14.5381 4.92062 13.671 4.57637C12.8039 4.23212 11.8772 4.06261 10.9444 4.07758C10.372 4.04472 9.79881 4.12503 9.25752 4.3139C8.71624 4.50277 8.21749 4.79651 7.78983 5.1783C7.36216 5.5601 7.01396 6.02246 6.76515 6.53894C6.51633 7.05543 6.37178 7.6159 6.33976 8.1883C6.33976 8.24149 6.33976 8.28708 6.33976 8.34026C6.31171 9.43901 6.66625 10.5134 7.34275 11.3796C8.62018 12.7041 10.2241 13.6686 11.993 14.1758C15.2451 15.3054 17.6841 16.7567 19.3102 18.5297C20.7778 20.0848 21.5936 22.1433 21.5897 24.2817" fill="white"/>
<path d="M47.2571 32.7455H36.247V31.7274C36.7554 31.7341 37.2537 31.5856 37.6755 31.3018C37.8551 31.2076 38.0083 31.07 38.1211 30.9014C38.2339 30.7329 38.3027 30.5388 38.3214 30.3369C38.3107 30.1802 38.2611 30.0287 38.177 29.8961L32.7214 21.9634L31.612 23.0728V29.3263C31.5683 29.6922 31.6062 30.0633 31.7232 30.4128C31.8401 30.7623 32.0331 31.0815 32.2883 31.3474C32.6997 31.6308 33.1958 31.7649 33.694 31.7274V32.7455H23.003V31.7274C23.4826 31.773 23.9637 31.6581 24.3708 31.4006C24.6454 31.1357 24.8538 30.81 24.9792 30.4496C25.1046 30.0892 25.1435 29.7044 25.0926 29.3263V4.00849C25.1433 3.65298 25.1159 3.29068 25.0122 2.94685C24.9085 2.60302 24.7311 2.28595 24.4923 2.01772C24.0525 1.69786 23.5157 1.53952 22.9727 1.56942V0.498047H31.612V20.7553L37.7667 14.7906C37.9883 14.6007 38.1696 14.3685 38.3001 14.1075C38.4306 13.8465 38.5076 13.5621 38.5265 13.2709C38.5201 13.0199 38.4461 12.7752 38.3124 12.5626C38.1787 12.35 37.9902 12.1773 37.7667 12.0628C37.2154 11.7362 36.5837 11.5704 35.9431 11.5841V10.6115H45.8969V11.6145C45.1359 11.6201 44.3819 11.7616 43.6706 12.0324C42.8174 12.3826 42.0425 12.8992 41.3911 13.5521L37.0068 17.7388L45.1903 29.4706C45.479 29.9569 45.7982 30.4508 46.1553 30.9903C46.2619 31.1981 46.4183 31.3763 46.6105 31.5089C46.8028 31.6415 47.0249 31.7244 47.2571 31.7502V32.7683" fill="white"/>
<path d="M65.5316 12.3745C65.1853 12.3576 64.8396 12.42 64.521 12.5568C63.9823 12.8774 63.5898 13.3953 63.4269 14.0005L55.479 35.6331C54.9652 37.2538 53.991 38.69 52.6752 39.7666C51.7008 40.5344 50.4964 40.952 49.2559 40.952C48.3691 40.9614 47.5011 40.696 46.7712 40.1921C46.4964 40.0409 46.2543 39.8369 46.0587 39.5917C45.8631 39.3466 45.7179 39.0651 45.6315 38.7636C45.5615 38.357 45.5259 37.9453 45.5251 37.5327C45.4998 37.1346 45.5608 36.7357 45.7037 36.3633C45.8466 35.9909 46.0682 35.6537 46.3533 35.3748C46.8903 34.8779 47.5974 34.6059 48.3289 34.6149C48.9155 34.5946 49.4907 34.7801 49.9549 35.1392C50.2479 35.341 50.4647 35.6353 50.5704 35.975C50.6857 36.344 50.7447 36.7282 50.7452 37.1148C50.7678 37.478 50.708 37.8416 50.5704 38.1785C50.8777 38.3446 51.2245 38.4234 51.5734 38.4065C51.8974 38.4161 52.2178 38.3373 52.5004 38.1785C53.2608 37.5579 53.8364 36.7406 54.1644 35.8155C54.6434 34.8684 54.9276 33.8349 55.0003 32.7761C55.016 32.5667 54.9848 32.3565 54.9091 32.1606L48.1541 14.0005C48.0122 13.5311 47.7503 13.1068 47.3943 12.7696C47.0098 12.4828 46.5356 12.3427 46.057 12.3745V11.4551H56.8087V12.3745C56.1915 12.3527 55.575 12.4349 54.9851 12.6176C54.5672 12.7772 54.3468 13.2027 54.3468 13.8714C54.3852 14.4108 54.5056 14.9411 54.7039 15.4442L57.9484 24.5623L61.1929 15.4442C61.3914 14.9254 61.5117 14.3799 61.5501 13.8258C61.5501 13.1875 61.3373 12.7772 60.9346 12.6176C60.3403 12.4312 59.7182 12.3489 59.0958 12.3745V11.4551H65.5392V12.3745" fill="white"/>
<path d="M77.7269 2.77736C76.6434 2.77568 75.5664 2.94492 74.5356 3.27885C73.5012 3.61856 72.5324 4.13252 71.671 4.79852C70.7811 5.47757 70.0239 6.31469 69.4371 7.26799C68.7394 8.40577 68.2673 9.66728 68.0466 10.9836C67.8539 12.1451 67.9424 13.3359 68.305 14.4561C68.6776 15.5764 69.3225 16.5868 70.1818 17.3966C70.9884 18.1691 71.9279 18.7895 72.9552 19.2278C73.9229 19.6206 74.951 19.8442 75.9945 19.8889C76.9771 19.9102 77.9554 19.7531 78.8819 19.4254C79.9232 19.0609 80.8945 18.5213 81.7541 17.8297C81.7541 18.1793 81.7541 18.6504 81.7997 19.2354V21.2034C81.7997 21.9253 81.7465 22.6851 81.6705 23.4829C81.5958 24.251 81.4663 25.0128 81.283 25.7624C81.1182 26.4541 80.8627 27.1209 80.5231 27.7456C80.241 28.3068 79.8717 28.8197 79.429 29.2653C78.9958 29.7069 78.4793 30.0582 77.9093 30.2987C77.2772 30.556 76.601 30.6876 75.9185 30.6862H75.2651C75.0094 30.6583 74.7557 30.6151 74.5052 30.557C74.289 30.5192 74.0808 30.4447 73.8898 30.3367C73.8222 30.3065 73.7659 30.2557 73.729 30.1915C73.6921 30.1273 73.6766 30.0531 73.6846 29.9795C73.8071 29.8044 73.9831 29.6738 74.1861 29.6072C74.5037 29.4763 74.8133 29.3266 75.1131 29.1589C75.4258 28.973 75.687 28.7118 75.8729 28.3991C76.1088 27.9749 76.222 27.4934 76.1997 27.0086C76.2214 26.6633 76.1643 26.3177 76.0327 25.9977C75.901 25.6778 75.6983 25.3921 75.4398 25.1622C74.855 24.6833 74.1128 24.4394 73.3579 24.4783C72.7286 24.4688 72.1053 24.6012 71.5343 24.8658C71.007 25.0944 70.558 25.472 70.2425 25.9524C69.9436 26.4031 69.7825 26.9312 69.779 27.4721C69.8038 28.0174 69.983 28.5444 70.2957 28.9917C70.6845 29.5666 71.1797 30.0618 71.7546 30.4506C72.4539 30.9244 73.2231 31.2859 74.0341 31.522C74.989 31.8035 75.9792 31.9468 76.9747 31.9475C78.093 31.9469 79.2004 31.7275 80.2344 31.3016C81.2583 30.8586 82.2129 30.27 83.0686 29.554C84.9054 28.003 86.3458 26.0363 87.2705 23.8173C87.7429 22.6616 88.082 21.4558 88.2811 20.2232C88.4901 18.9525 88.5892 17.6662 88.5774 16.3784C88.5916 14.5066 88.2964 12.6452 87.7036 10.8696C87.1158 9.21464 86.2242 7.68394 85.0746 6.35619C84.4407 5.61697 83.6976 4.97894 82.871 4.46419C82.0777 3.93204 81.2197 3.50308 80.318 3.18767C79.4801 2.92038 78.6064 2.78203 77.7269 2.77736V2.77736ZM77.6662 3.9779C78.2034 3.99035 78.7278 4.14504 79.1858 4.4262C79.7245 4.77717 80.1828 5.23809 80.5307 5.77871C80.9826 6.47751 81.3115 7.24847 81.5033 8.05822C81.7549 9.10812 81.8749 10.1852 81.8605 11.2647C81.8745 11.9645 81.8517 12.6645 81.7921 13.3619C81.7482 13.923 81.6464 14.4782 81.4881 15.0183C81.3284 15.5504 81.1039 16.0608 80.8195 16.538C80.6271 16.8259 80.3913 17.0822 80.1204 17.2978C79.8107 17.5564 79.4652 17.7688 79.0946 17.9285C78.7134 18.0847 78.3061 18.1672 77.8941 18.1717C77.2837 18.1777 76.6883 17.9828 76.1997 17.617C75.6877 17.2078 75.2747 16.6883 74.9915 16.0973C74.6377 15.3748 74.3822 14.6081 74.2317 13.8178C74.0637 12.8723 73.9824 11.9135 73.9885 10.9532C73.9821 10.1174 74.0329 9.28219 74.1405 8.45334C74.2254 7.67336 74.4092 6.90736 74.6876 6.17383C74.9209 5.54687 75.3138 4.99163 75.8273 4.56297C76.3456 4.14203 76.9989 3.92335 77.6662 3.94751V3.9779Z" fill="white"/>
<path d="M83.0228 56.3239V46.446H84.3449V55.2069H89.2079V56.3619H83.0608L83.0228 56.3239ZM70.0828 52.2739H73.426L72.3927 49.5385C72.0887 48.7103 71.8456 48.0189 71.6936 47.487C71.5689 48.1312 71.391 48.7641 71.1617 49.379L70.0828 52.2739ZM67.2258 56.3239L71.025 46.446H72.4307L76.4806 56.3239H74.9989L73.8515 53.3377H69.7484L68.6771 56.3239H67.2258ZM57.8646 56.3239V47.6085H54.6125V46.446H62.4388V47.6085H59.1715V56.3239H57.8646ZM46.1859 56.3239V46.446H47.4928V56.3239H46.1859ZM32.5088 51.1418H35.0619C35.6993 51.1956 36.3351 51.0205 36.8551 50.6479C37.0385 50.4805 37.1822 50.2743 37.2755 50.0442C37.3689 49.8141 37.4095 49.566 37.3946 49.3182C37.4078 48.9393 37.2986 48.5663 37.083 48.2544C36.8802 47.9689 36.5849 47.7622 36.2472 47.6693C35.8477 47.6073 35.4428 47.587 35.0391 47.6085H32.5088V51.1418ZM31.2019 56.3239V46.446H34.9251C35.4336 46.4309 35.9425 46.4639 36.4448 46.5448C36.8814 46.6086 37.2988 46.7668 37.6681 47.0083C38.0007 47.2524 38.2628 47.58 38.4279 47.9581C38.6307 48.377 38.7322 48.8377 38.7243 49.303C38.7577 50.0886 38.4854 50.8567 37.9644 51.4457C37.425 52.0232 36.4448 52.3119 35.0695 52.3119H32.5544V56.3239H31.2019ZM18.2239 52.2739H21.5672L20.5262 49.5385C20.2146 48.7103 19.9791 48.0189 19.8271 47.487C19.7024 48.1312 19.5245 48.7641 19.2952 49.379L18.2239 52.2739ZM15.3669 56.3239L19.1661 46.446H20.549L24.6217 56.3239H23.102L21.9471 53.3377H17.8212L16.7346 56.3239H15.3669ZM7.98126 52.8666L9.28818 53.1933C9.08264 54.1562 8.56111 55.0228 7.8065 55.6552C7.04606 56.2389 6.10494 56.5374 5.14707 56.4986C4.24832 56.5286 3.35899 56.3076 2.57882 55.8604C1.89428 55.3994 1.36466 54.7427 1.05915 53.976C0.707497 53.1337 0.529185 52.2292 0.53486 51.3165C0.512547 50.3828 0.715858 49.4575 1.12753 48.6191C1.49103 47.8672 2.08093 47.2481 2.81437 46.8487C3.54745 46.4465 4.37173 46.2398 5.20786 46.2484C6.09994 46.218 6.97678 46.4853 7.70012 47.0083C8.39714 47.535 8.89529 48.2822 9.11342 49.1282L7.8293 49.4322C7.65209 48.8378 7.30314 48.3091 6.82631 47.9125C6.33389 47.5452 5.73057 47.3575 5.11668 47.3806C4.44011 47.3648 3.77481 47.5556 3.20949 47.9277C2.70505 48.2913 2.33185 48.8084 2.14571 49.4018C1.9336 50.01 1.8257 50.6496 1.82658 51.2938C1.81689 52.0591 1.95091 52.8194 2.2217 53.5353C2.43414 54.1201 2.83861 54.6157 3.36905 54.941C3.87387 55.2443 4.45174 55.4046 5.04069 55.4045C5.71639 55.4217 6.3762 55.1982 6.9023 54.7738C7.45643 54.27 7.82116 53.5915 7.93567 52.8514L7.98126 52.8666Z" fill="white"/>
<path d="M121.859 13.0886C120.306 16.0467 118.469 18.846 116.373 21.4468L128.644 20.4818C127.656 18.9622 126.547 17.3437 125.536 16.0064L126.95 15.2466C128.986 17.8729 130.83 20.6435 132.466 23.5364L131.022 24.4102C130.65 23.7035 130.156 22.8297 129.563 21.8647C116.441 23.0425 115.127 23.1109 114.275 23.4908C114.114 22.8939 113.908 22.3097 113.66 21.7432C114.177 21.6292 114.724 20.9833 115.453 20.0031C117.084 17.8132 118.511 15.4784 119.716 13.0278H112.27V11.4854H133.028V13.0886H121.859ZM130.604 6.44765H114.815V4.86719H130.604V6.44765Z" fill="white"/>
<path d="M156.697 22.5327C157.404 22.5327 157.526 21.9477 157.594 19.1667C158.036 19.4794 158.53 19.711 159.053 19.8505C158.916 23.057 158.491 24.0448 156.819 24.0448H153.97C152.222 24.0448 151.69 23.5509 151.69 21.5677V10.5197H146.082C145.589 16.4312 143.962 21.4994 138.241 24.3715C137.925 23.8975 137.535 23.4768 137.086 23.1254C142.504 20.58 144.031 15.9602 144.479 10.5197H138.142V9.00004H144.578C144.669 7.11564 144.669 5.15526 144.669 3.17969H146.295C146.295 5.15526 146.295 7.11564 146.181 9.00004H153.263V21.545C153.263 22.3504 153.377 22.5099 154.137 22.5099L156.697 22.5327Z" fill="white"/>
<path d="M119.13 39.205L112.558 41.3782L112.109 39.9193C113.804 39.4406 116.349 38.6428 118.895 37.8449L119.13 39.205ZM123.689 44.9114C122.891 49.668 120.718 52.2135 112.854 53.3228C112.7 52.8549 112.468 52.4158 112.17 52.0235C119.639 51.1041 121.448 48.9842 122.154 44.9114H123.689ZM117.915 36.3329C116.388 35.2785 114.734 34.4231 112.991 33.7874L113.751 32.7084C115.502 33.2846 117.172 34.084 118.72 35.0867L117.915 36.3329ZM128.666 49.1285V44.2048H116.79V49.2881H115.27V42.7459H130.254V49.1285H128.666ZM126.668 35.2539C126.553 35.703 126.403 36.1425 126.22 36.5684C127.564 38.62 130.178 40.2232 133.096 40.8615C132.718 41.2248 132.4 41.6453 132.154 42.1076C129.575 41.4174 127.293 39.9015 125.657 37.7918C124.502 39.7065 122.618 41.2794 119.366 42.2216C119.134 41.8076 118.848 41.4268 118.515 41.0894C122.755 40.0105 124.388 37.769 125.148 35.2539H122.109C121.424 36.2523 120.6 37.1478 119.662 37.9133C119.367 37.5324 119 37.2124 118.583 36.9711C120.302 35.655 121.619 33.8835 122.382 31.8574L123.902 32.093C123.641 32.7496 123.334 33.3869 122.983 34.0002H131.204L131.485 33.9318L132.595 34.2585C132.015 35.4798 131.371 36.6694 130.665 37.8221L129.32 37.3966C129.646 36.8496 130.08 36.0517 130.497 35.2539H126.668ZM123.887 48.4219C126.922 49.3655 129.889 50.5129 132.769 51.8563L131.873 53.1785C129.008 51.7697 126.048 50.5661 123.013 49.5768L123.887 48.4219Z" fill="white"/>
<path d="M150.672 38.4066C152.412 42.4565 155.474 46.2785 158.817 48.1173C158.374 48.5144 157.972 48.9548 157.617 49.4318C154.083 47.2435 150.983 43.0492 149.137 38.4066H148.765V47.2207H154.365V48.7935H148.765V53.2766H147.139V48.7935H141.554V47.2207H147.139V38.4066H146.713C144.851 43.0264 141.744 47.2207 138.355 49.5002C138.016 49.0513 137.637 48.6342 137.223 48.2541C140.384 46.3241 143.37 42.4565 145.14 38.3762H137.815V36.8261H147.146V31.834H148.772V36.8261H158.194V38.4066H150.672Z" fill="white"/>
</svg>
