<svg width="286" height="45" viewBox="0 0 286 45" fill="none" xmlns="http://www.w3.org/2000/svg">
<path d="M14.5912 28.3725C15.1125 29.5656 15.8233 30.6634 16.6763 31.6179C14.8282 32.6202 12.9326 33.0974 10.8002 33.0974C4.54488 33.0974 0.0429688 28.8975 0.0429688 22.168C0.0429688 15.3908 4.78182 11.1908 10.8002 11.1908C12.9326 11.1908 14.6386 11.6681 16.3446 12.5749C15.539 13.5772 14.8756 14.7226 14.4017 15.9635C13.3591 15.534 12.3166 15.3431 11.2267 15.3431C7.53035 15.3431 4.63965 17.7771 4.63965 22.168C4.63965 26.3202 7.43558 28.9929 11.3688 28.9929C12.5535 28.9929 13.5961 28.802 14.5912 28.3725ZM27.1492 11.2385C33.3097 11.2385 37.7168 15.6771 37.7168 22.2157C37.7168 28.7066 33.2623 33.1452 27.1492 33.1452C21.0361 33.1452 16.6289 28.7066 16.6289 22.2157C16.6289 15.6771 21.0835 11.2385 27.1492 11.2385ZM27.1492 15.2476C23.7372 15.2476 21.2256 17.9203 21.2256 22.2157C21.2256 26.4157 23.7372 29.1361 27.1492 29.1361C30.6559 29.1361 33.1201 26.4634 33.1201 22.2157C33.1201 17.9203 30.7033 15.2476 27.1492 15.2476ZM40.6549 32.6202V11.6681H45.2516V32.6202H40.6549ZM40.0863 5.27268C40.0863 3.64997 41.4131 2.40907 42.9296 2.40907C44.446 2.40907 45.7729 3.6977 45.7729 5.27268C45.7729 6.94312 44.446 8.23176 42.9296 8.23176C41.4131 8.23176 40.0863 6.8954 40.0863 5.27268ZM49.2322 13.0044C52.0756 11.859 55.6297 11.1908 58.6152 11.1908C63.8279 11.1908 67.1925 13.2431 67.1925 19.1135V32.5724H62.6432V19.5907C62.6432 16.5839 60.795 15.4862 58.2361 15.4862C56.6248 15.4862 55.0136 15.7249 53.7815 16.1067V32.6679H49.1849V13.0044H49.2322ZM71.031 0.5H75.6276V12.2885C76.5754 11.7635 78.471 11.2385 80.3191 11.2385C86.2427 11.2385 90.6972 15.1044 90.6972 21.8339C90.6972 28.6111 86.2901 33.1452 78.7079 33.1452C75.7698 33.1452 73.1634 32.5247 71.0784 31.7611V0.5H71.031ZM75.5803 28.6588C76.4806 28.9452 77.618 29.0884 78.7553 29.0884C82.9729 29.0884 85.9583 26.702 85.9583 21.8816C85.9583 17.8248 83.115 15.3908 79.6557 15.3908C77.8549 15.3908 76.4806 15.868 75.5329 16.393V28.6588H75.5803ZM103.824 18.5885C103.824 16.2976 102.165 15.2953 99.8906 15.2953C97.5211 15.2953 95.673 16.0112 93.967 17.0135V12.909C95.7678 11.859 98.0898 11.1908 100.601 11.1908C105.103 11.1908 108.278 13.0999 108.278 18.3498V32.1906C106.335 32.7156 103.587 33.0497 101.265 33.0497C95.9573 33.0497 92.0715 31.3793 92.0715 26.6543C92.0715 22.4066 95.6256 20.3066 101.549 20.3066H103.824V18.5885V18.5885ZM103.824 23.4566H101.881C98.7059 23.4566 96.6208 24.4112 96.6208 26.5111C96.6208 28.7066 98.5637 29.5179 101.36 29.5179C102.07 29.5179 103.018 29.4225 103.871 29.2793L103.824 23.4566ZM111.643 26.9407C113.538 28.4202 115.813 29.327 117.898 29.327C119.936 29.327 121.263 28.6111 121.263 26.9407C121.263 25.2225 120.078 24.6021 117.424 23.9339C113.159 22.9316 111.359 21.2135 111.359 17.5385C111.359 13.2908 114.486 11.1908 118.656 11.1908C120.978 11.1908 122.827 11.7158 124.533 12.8135V17.1089C122.732 15.7726 120.978 14.9612 118.799 14.9612C116.808 14.9612 115.766 15.9635 115.766 17.3476C115.766 18.7317 116.666 19.4476 118.988 20.068C123.68 21.118 125.67 22.8839 125.67 26.702C125.67 31.0929 122.4 33.0974 117.946 33.0974C115.529 33.0974 113.159 32.4293 111.596 31.3793V26.9407H111.643ZM131.973 23.218V23.3134C132.257 27.0361 135.385 29.0884 138.607 29.0884C141.45 29.0884 143.441 28.4202 145.478 27.0361V31.1406C143.63 32.477 140.882 33.0974 138.275 33.0974C131.878 33.0974 127.565 28.9452 127.565 22.3112C127.565 15.6294 131.83 11.1908 137.47 11.1908C143.441 11.1908 146.237 15.1044 146.237 20.8316V23.218H131.973ZM141.924 20.2112C141.829 16.9658 140.266 15.1521 137.28 15.1521C134.626 15.1521 132.683 17.0612 132.115 20.2112H141.924Z" fill="white"/>
<path d="M162.955 0.5H163.579C164.202 0.5 164.686 0.830475 164.686 1.25537V43.7446C164.686 44.1695 164.202 44.5 163.579 44.5H162.955C162.332 44.5 161.848 44.1695 161.848 43.7446V1.25537C161.848 0.830475 162.402 0.5 162.955 0.5Z" fill="white"/>
<path d="M189.375 32.7701H186.8L178.887 11.8574H181.223L188.183 30.5986L195.143 11.8574H197.383L189.375 32.7701ZM209.921 25.217H198.48V25.2642C198.48 29.0407 201.15 31.2595 204.105 31.2595C206.25 31.2595 207.728 30.693 209.254 29.5128V31.6371C207.919 32.6757 205.964 33.1005 204.105 33.1005C199.719 33.1005 196.382 30.0793 196.382 25.0754C196.382 20.4491 199.481 17.0502 203.581 17.0502C207.395 17.0502 209.921 19.3633 209.921 23.7536V25.217ZM198.623 23.4231H207.871C207.728 20.213 206.012 18.9385 203.485 18.9385C201.15 18.9385 199.243 20.5435 198.623 23.4231ZM212.257 32.7701V18.2304C214.259 17.475 216.548 17.0502 218.598 17.0502C222.411 17.0502 224.747 18.5608 224.747 22.3846V32.7229H222.65V22.8094C222.65 19.6938 220.457 18.9857 218.407 18.9857C216.834 18.9857 215.403 19.2689 214.307 19.5521V32.7229H212.257V32.7701ZM226.034 19.2217V17.4278H228.37V13.6985H230.468V17.4278H234.711V19.2217H230.468V28.5687C230.468 30.5514 231.231 31.3067 232.661 31.3067C233.614 31.3067 234.425 30.9762 235.473 30.4569V32.3452C234.568 32.8173 233.519 33.1005 232.232 33.1005C230.039 33.1005 228.418 31.9204 228.418 28.7575V19.1745H226.034V19.2217ZM249.203 17.4278V32.5813C247.344 32.9117 245.485 33.1005 243.911 33.1005C239.526 33.1005 237.047 31.5899 237.047 27.7661V17.4278H239.144V27.6717C239.144 30.5514 241.385 31.3067 243.816 31.3067C244.865 31.3067 246.057 31.2595 247.153 31.1178V17.475H249.203V17.4278ZM254.828 19.977V32.7701H252.731V18.844C254.304 17.8055 256.258 17.1918 258.356 17.1918C259.166 17.1918 260.025 17.2862 260.883 17.5223V19.5994C259.977 19.2689 258.928 19.2217 258.213 19.2217C256.735 19.1745 255.591 19.5049 254.828 19.977ZM274.374 25.217H262.932V25.2642C262.932 29.0407 265.602 31.2595 268.558 31.2595C270.703 31.2595 272.181 30.693 273.706 29.5128V31.6371C272.372 32.6757 270.417 33.1005 268.558 33.1005C264.172 33.1005 260.835 30.0793 260.835 25.0754C260.835 20.4491 263.934 17.0502 268.033 17.0502C271.847 17.0502 274.374 19.3633 274.374 23.7536V25.217V25.217ZM263.076 23.4231H272.324C272.181 20.213 270.465 18.9385 267.938 18.9385C265.554 18.9385 263.648 20.5435 263.076 23.4231ZM275.947 31.8731V29.4656C277.234 30.6458 278.569 31.3067 280.19 31.3067C282.097 31.3067 283.288 30.5514 283.288 28.8519C283.288 27.0108 281.954 26.5388 279.57 25.7363C276.9 24.8393 275.756 23.7064 275.756 21.2516C275.756 18.5608 277.759 17.0974 280.523 17.0974C282.001 17.0974 283.479 17.4278 284.671 18.2776V20.5435C283.479 19.5521 282.287 18.8912 280.523 18.8912C278.855 18.8912 277.806 19.7882 277.806 21.2516C277.806 22.6678 278.617 23.3759 280.953 24.1312C283.574 24.9337 285.338 25.9723 285.338 28.7575C285.338 31.7787 283.002 33.1477 280.19 33.1477C278.521 33.1005 276.9 32.6285 275.947 31.8731Z" fill="white"/>
</svg>
