<svg width="146" height="51" viewBox="0 0 146 51" fill="none" xmlns="http://www.w3.org/2000/svg">
<path d="M7.31865 16.903V23.0945H15.777V26.7485H7.31865V33.1768H16.792V37H2.54815V13.1137H16.792V16.903H7.31865ZM30.6769 32.9062V37H28.1732C26.0755 37 24.4628 36.4925 23.335 35.4775C22.2298 34.4625 21.6772 32.7708 21.6772 30.4025V22.2825H19.072V18.2563H21.6772V13.6212H26.4477V18.2563H30.643V22.2825H26.4477V30.4702C26.4477 31.3724 26.6281 32.0039 26.989 32.3648C27.3499 32.7257 27.9589 32.9062 28.816 32.9062H30.6769ZM45.613 17.9857C47.7783 17.9857 49.5038 18.6962 50.7895 20.1172C52.0751 21.5382 52.718 23.5343 52.718 26.1057V37H47.9813V26.647C47.9813 25.1583 47.5978 24.008 46.831 23.196C46.0641 22.3614 45.0152 21.9442 43.6845 21.9442C42.3311 21.9442 41.2485 22.384 40.4365 23.2637C39.6245 24.1433 39.2185 25.4064 39.2185 27.053V37H34.448V11.9633H39.2185V22.0118C39.7147 20.7487 40.5267 19.7676 41.6545 19.0683C42.8048 18.3466 44.1243 17.9857 45.613 17.9857ZM74.8809 26.9177C74.8809 27.3913 74.8245 27.9327 74.7117 28.5417H60.9754C61.0431 30.2108 61.4942 31.4401 62.3287 32.2295C63.1633 33.0189 64.2008 33.4137 65.4414 33.4137C66.5466 33.4137 67.4601 33.143 68.1819 32.6017C68.9262 32.0603 69.3999 31.3273 69.6029 30.4025H74.6441C74.396 31.7107 73.8659 32.8836 73.0539 33.9212C72.2419 34.9587 71.1931 35.7707 69.9074 36.3572C68.6443 36.9436 67.2346 37.2368 65.6782 37.2368C63.8512 37.2368 62.2272 36.8534 60.8062 36.0865C59.3852 35.2971 58.28 34.1806 57.4906 32.737C56.7011 31.2934 56.3064 29.5905 56.3064 27.6282C56.3064 25.6658 56.7011 23.9629 57.4906 22.5193C58.28 21.0532 59.3852 19.9367 60.8062 19.1698C62.2272 18.4029 63.8512 18.0195 65.6782 18.0195C67.5278 18.0195 69.1405 18.4029 70.5164 19.1698C71.9148 19.9367 72.9862 20.9968 73.7306 22.3502C74.4975 23.6809 74.8809 25.2034 74.8809 26.9177ZM70.0766 26.444C70.1442 24.9102 69.7382 23.7486 68.8586 22.9592C68.0015 22.1697 66.9413 21.775 65.6782 21.775C64.3926 21.775 63.3099 22.1697 62.4302 22.9592C61.5506 23.7486 61.0656 24.9102 60.9754 26.444H70.0766ZM83.3762 21.8427C84.0755 20.6472 85.0002 19.7112 86.1506 19.0345C87.3009 18.3353 88.5866 17.9857 90.0076 17.9857V23.0945H88.6204C85.1243 23.0945 83.3762 24.7185 83.3762 27.9665V37H78.6057V18.2563H83.3762V21.8427ZM110.613 26.9177C110.613 27.3913 110.557 27.9327 110.444 28.5417H96.7079C96.7756 30.2108 97.2267 31.4401 98.0612 32.2295C98.8958 33.0189 99.9333 33.4137 101.174 33.4137C102.279 33.4137 103.193 33.143 103.914 32.6017C104.659 32.0603 105.132 31.3273 105.335 30.4025H110.377C110.128 31.7107 109.598 32.8836 108.786 33.9212C107.974 34.9587 106.926 35.7707 105.64 36.3572C104.377 36.9436 102.967 37.2368 101.411 37.2368C99.5837 37.2368 97.9597 36.8534 96.5387 36.0865C95.1177 35.2971 94.0125 34.1806 93.2231 32.737C92.4336 31.2934 92.0389 29.5905 92.0389 27.6282C92.0389 25.6658 92.4336 23.9629 93.2231 22.5193C94.0125 21.0532 95.1177 19.9367 96.5387 19.1698C97.9597 18.4029 99.5837 18.0195 101.411 18.0195C103.26 18.0195 104.873 18.4029 106.249 19.1698C107.647 19.9367 108.719 20.9968 109.463 22.3502C110.23 23.6809 110.613 25.2034 110.613 26.9177ZM105.809 26.444C105.877 24.9102 105.471 23.7486 104.591 22.9592C103.734 22.1697 102.674 21.775 101.411 21.775C100.125 21.775 99.0424 22.1697 98.1627 22.9592C97.2831 23.7486 96.7981 24.9102 96.7079 26.444H105.809ZM121.68 18.0195C123.259 18.0195 124.612 18.3917 125.74 19.136C126.868 19.8803 127.669 20.8841 128.142 22.1472V18.2563H132.879V37H128.142V33.0753C127.669 34.3384 126.868 35.3534 125.74 36.1203C124.612 36.8647 123.259 37.2368 121.68 37.2368C120.101 37.2368 118.68 36.8534 117.417 36.0865C116.154 35.3196 115.161 34.2144 114.44 32.7708C113.74 31.3047 113.391 29.5905 113.391 27.6282C113.391 25.6658 113.74 23.9629 114.44 22.5193C115.161 21.0532 116.154 19.9367 117.417 19.1698C118.68 18.4029 120.101 18.0195 121.68 18.0195ZM123.169 22.181C121.68 22.181 120.485 22.6659 119.582 23.6358C118.68 24.6057 118.229 25.9365 118.229 27.6282C118.229 29.3198 118.68 30.6506 119.582 31.6205C120.485 32.5678 121.68 33.0415 123.169 33.0415C124.612 33.0415 125.796 32.5566 126.721 31.5867C127.669 30.5942 128.142 29.2747 128.142 27.6282C128.142 25.9591 127.669 24.6396 126.721 23.6697C125.796 22.6772 124.612 22.181 123.169 22.181ZM142.311 11.9633V37H137.54V11.9633H142.311Z" fill="white"/>
</svg>
