<svg width="142" height="51" viewBox="0 0 142 51" fill="none" xmlns="http://www.w3.org/2000/svg">
<path d="M16.9843 13.1137V16.903H6.93583V23.2975H14.9882V26.9515H6.93583V37H2.16533V13.1137H16.9843ZM38.1709 26.9177C38.1709 27.3913 38.1145 27.9327 38.0017 28.5417H24.2654C24.333 30.2108 24.7841 31.4401 25.6187 32.2295C26.4533 33.0189 27.4908 33.4137 28.7314 33.4137C29.8366 33.4137 30.7501 33.143 31.4719 32.6017C32.2162 32.0603 32.6899 31.3273 32.8929 30.4025H37.934C37.6859 31.7107 37.1559 32.8836 36.3439 33.9212C35.5319 34.9587 34.483 35.7707 33.1974 36.3572C31.9343 36.9436 30.5245 37.2368 28.9682 37.2368C27.1412 37.2368 25.5172 36.8534 24.0962 36.0865C22.6752 35.2971 21.57 34.1806 20.7805 32.737C19.9911 31.2934 19.5964 29.5905 19.5964 27.6282C19.5964 25.6658 19.9911 23.9629 20.7805 22.5193C21.57 21.0532 22.6752 19.9367 24.0962 19.1698C25.5172 18.4029 27.1412 18.0195 28.9682 18.0195C30.8178 18.0195 32.4305 18.4029 33.8064 19.1698C35.2048 19.9367 36.2762 20.9968 37.0205 22.3502C37.7874 23.6809 38.1709 25.2034 38.1709 26.9177ZM33.3665 26.444C33.4342 24.9102 33.0282 23.7486 32.1485 22.9592C31.2914 22.1697 30.2313 21.775 28.9682 21.775C27.6825 21.775 26.5999 22.1697 25.7202 22.9592C24.8405 23.7486 24.3556 24.9102 24.2654 26.444H33.3665ZM53.0607 17.9857C55.226 17.9857 56.9515 18.6962 58.2372 20.1172C59.5229 21.5382 60.1657 23.5343 60.1657 26.1057V37H55.429V26.647C55.429 25.1583 55.0456 24.008 54.2787 23.196C53.5118 22.3614 52.463 21.9442 51.1322 21.9442C49.7789 21.9442 48.6962 22.384 47.8842 23.2637C47.0722 24.1433 46.6662 25.4064 46.6662 27.053V37H41.8957V18.2563H46.6662V22.0118C47.1624 20.7487 47.9744 19.7676 49.1022 19.0683C50.2525 18.3466 51.572 17.9857 53.0607 17.9857ZM72.0433 18.0195C73.6222 18.0195 74.9755 18.3917 76.1033 19.136C77.2311 19.8803 78.0318 20.8841 78.5055 22.1472V18.2563H83.2422V37.0677C83.2422 38.8044 82.8925 40.3608 82.1933 41.7367C81.5166 43.1351 80.4904 44.2291 79.1145 45.0185C77.7611 45.8079 76.1146 46.2027 74.1748 46.2027C71.4682 46.2027 69.2803 45.5598 67.6112 44.2742C65.942 42.9885 64.927 41.2404 64.5662 39.03H69.269C69.5397 39.9773 70.0584 40.7104 70.8253 41.2292C71.6148 41.7705 72.6185 42.0412 73.8365 42.0412C75.2349 42.0412 76.3627 41.6239 77.2198 40.7893C78.0769 39.9773 78.5055 38.7368 78.5055 37.0677V33.0753C78.0318 34.3384 77.2311 35.3534 76.1033 36.1203C74.9755 36.8647 73.6222 37.2368 72.0433 37.2368C70.4644 37.2368 69.0434 36.8534 67.7803 36.0865C66.5172 35.3196 65.5248 34.2144 64.803 32.7708C64.1038 31.3047 63.7542 29.5905 63.7542 27.6282C63.7542 25.6658 64.1038 23.9629 64.803 22.5193C65.5248 21.0532 66.5172 19.9367 67.7803 19.1698C69.0434 18.4029 70.4644 18.0195 72.0433 18.0195ZM73.532 22.181C72.0433 22.181 70.8479 22.6659 69.9457 23.6358C69.0434 24.6057 68.5923 25.9365 68.5923 27.6282C68.5923 29.3198 69.0434 30.6506 69.9457 31.6205C70.8479 32.5678 72.0433 33.0415 73.532 33.0415C74.9755 33.0415 76.1597 32.5566 77.0845 31.5867C78.0318 30.5942 78.5055 29.2747 78.5055 27.6282C78.5055 25.9591 78.0318 24.6396 77.0845 23.6697C76.1597 22.6772 74.9755 22.181 73.532 22.181ZM100.381 33.346H108.399V37H95.6101V13.1137H100.381V33.346ZM116.347 13.1137V37H111.577V13.1137H116.347ZM125.602 13.1137V27.1207C125.602 28.9928 126.008 30.4025 126.82 31.3498C127.655 32.2746 128.85 32.737 130.407 32.737C131.94 32.737 133.113 32.2746 133.925 31.3498C134.76 30.4025 135.177 28.9928 135.177 27.1207V13.1137H139.914V27.1207C139.914 29.3311 139.496 31.2032 138.662 32.737C137.85 34.2482 136.711 35.376 135.245 36.1203C133.801 36.8647 132.155 37.2368 130.305 37.2368C127.441 37.2368 125.151 36.3797 123.437 34.6655C121.723 32.9513 120.866 30.4363 120.866 27.1207V13.1137H125.602Z" fill="white"/>
</svg>
